<svg width="80" height="81" viewBox="0 0 80 81" fill="none" xmlns="http://www.w3.org/2000/svg">
<g id="computer-old-electronics">
<g id="Group">
<path id="Vector" d="M76.186 57.8018H64.761V53.9768H68.561V50.1768H11.436V53.9768H15.2485V57.8018H3.81104V80.6518H76.186V57.8018ZM19.036 53.9768H60.936V57.8018H19.036V53.9768ZM72.386 76.8518H7.61104V61.6018H72.386V76.8518Z" fill="white"/>
<path id="Vector_2" d="M72.3836 4.45605H68.5586V50.181H72.3836V4.45605Z" fill="white"/>
<path id="Vector_3" d="M64.7619 65.4023H45.7119V69.2273H64.7619V65.4023Z" fill="white"/>
<path id="Vector_4" d="M49.5119 27.3296H45.7119V31.1296H49.5119V27.3296Z" fill="#4AF626"/>
<path id="Vector_5" d="M49.5119 19.6992H45.7119V23.4992H49.5119V19.6992Z" fill="#4AF626"/>
<path id="Vector_6" d="M45.7131 31.1318H34.2881V34.9318H45.7131V31.1318Z" fill="#4AF626"/>
<path id="Vector_7" d="M34.285 27.3286H30.46V31.1286H34.285V27.3286Z" fill="#4AF626"/>
<path id="Vector_8" d="M34.285 19.708H30.46V23.508H34.285V19.708Z" fill="#4AF626"/>
<path id="Vector_9" d="M15.2515 46.3759H64.7765V8.27588H15.2515V46.3759ZM19.039 12.0759H60.939V42.5509H19.039V12.0759Z" fill="white"/>
<path id="Vector_10" d="M22.8594 65.4023H15.2344V73.0273H22.8594V65.4023Z" fill="white"/>
<path id="Vector_11" d="M68.5664 0.654297H11.4414V4.4543H68.5664V0.654297Z" fill="white"/>
<path id="Vector_12" d="M11.4383 4.45605H7.61328V50.181H11.4383V4.45605Z" fill="white"/>
</g>
</g>
</svg>
