<svg width="216" height="216" viewBox="0 0 216 216" fill="none" xmlns="http://www.w3.org/2000/svg">
<g id="illustration">
<path id="Rectangle 176509" d="M0 0H192.875L216 20.833V216H0V0Z" fill="#4AF626"/>
<path id="Vector 2" d="M63 216V148L81.6875 150.393L82.0938 166.745H97.3281V175.519H107.078V186.487H115V216H63Z" fill="#A69375"/>
<path id="Vector 1" d="M63.7558 110.706V142.997L114.098 184.514V179.099H142.779V170.475H152.005V43.918H63.7558V93.0565H53.7275V110.706H63.7558Z" fill="#CAB187"/>
<rect id="Rectangle 176479" x="59.9448" y="57.757" width="8.82488" height="35.2995" fill="#1D1D1D"/>
<rect id="Rectangle 176504" x="59.9448" y="40.1072" width="8.82488" height="17.6498" fill="#3E3122"/>
<rect id="Rectangle 176505" x="68.77" y="31.2823" width="8.82488" height="17.6498" fill="#3E3122"/>
<rect id="Rectangle 176508" x="139.369" y="31.2823" width="8.82488" height="61.7741" transform="rotate(90 139.369 31.2823)" fill="#3E3122"/>
<rect id="Rectangle 176506" width="8.82488" height="17.6498" transform="matrix(-1 0 0 1 157.019 40.1072)" fill="#3E3122"/>
<rect id="Rectangle 176507" width="8.82488" height="17.6498" transform="matrix(-1 0 0 1 148.194 31.2823)" fill="#3E3122"/>
<rect id="Rectangle 176501" x="51.1201" y="93.0565" width="8.82488" height="17.6498" fill="#1D1D1D"/>
<rect id="Rectangle 176510" x="106.075" y="84.2316" width="8.82488" height="37.3052" transform="rotate(90 106.075 84.2316)" fill="#403E3E"/>
<rect id="Rectangle 176518" x="106.075" y="83.4293" width="8.82488" height="37.3052" transform="rotate(90 106.075 83.4293)" fill="#403E3E"/>
<rect id="Rectangle 176515" x="148.194" y="84.2316" width="8.82488" height="15.6441" transform="rotate(90 148.194 84.2316)" fill="#403E3E"/>
<rect id="Rectangle 176516" x="148.194" y="109.904" width="8.82488" height="15.6441" transform="rotate(90 148.194 109.904)" fill="#403E3E"/>
<rect id="Rectangle 176502" x="60" y="111" width="9" height="105" fill="#1D1D1D"/>
<rect id="Rectangle 176503" x="110" y="189" width="9" height="27" fill="#1D1D1D"/>
<rect id="Rectangle 176483" x="148.194" y="57.757" width="8.82488" height="105.096" fill="#1D1D1D"/>
<rect id="Rectangle 176480" x="68.77" y="48.9321" width="8.82488" height="8.82488" fill="#1D1D1D"/>
<rect id="Rectangle 176482" x="139.369" y="48.9321" width="8.82488" height="8.82488" fill="#1D1D1D"/>
<rect id="Rectangle 176484" x="148.194" y="164.057" width="8.82488" height="8.82488" fill="#1D1D1D"/>
<rect id="Rectangle 176485" x="139.369" y="172.881" width="8.82488" height="8.82488" fill="#1D1D1D"/>
<rect id="Rectangle 176487" x="92.8379" y="172.881" width="8.82488" height="8.82488" fill="#1D1D1D"/>
<rect id="Rectangle 176488" x="68.3687" y="136.379" width="8.82488" height="18.452" fill="#3E3122"/>
<rect id="Rectangle 176489" x="76.9932" y="145.605" width="24.8701" height="27.2769" fill="#3E3122"/>
<rect id="Rectangle 176491" x="139.369" y="145.605" width="8.82488" height="27.2769" fill="#3E3122"/>
<rect id="Rectangle 176490" x="101.663" y="136.379" width="37.7063" height="9.22601" fill="#3E3122"/>
<rect id="Rectangle 176495" x="101.663" y="145.605" width="37.7063" height="9.22601" fill="#1D1D1D"/>
<rect id="Rectangle 176496" x="120.115" y="127.554" width="8.82488" height="8.82488" fill="#1D1D1D"/>
<rect id="Rectangle 176497" x="86.4194" y="101.881" width="8.82488" height="8.82488" fill="#1D1D1D"/>
<rect id="Rectangle 176498" x="132.55" y="101.881" width="8.82488" height="8.82488" fill="#1D1D1D"/>
<rect id="Rectangle 176493" x="101.663" y="172.881" width="37.7063" height="8.82488" fill="#3E3122"/>
<rect id="Rectangle 176494" x="110.487" y="163.656" width="18.8531" height="9.22601" fill="#3E3122"/>
<rect id="Rectangle 176492" x="148.194" y="154.831" width="8.82488" height="9.22601" fill="#3E3122"/>
<rect id="Rectangle 176486" x="101.663" y="181.706" width="37.7063" height="8.82488" fill="#1D1D1D"/>
<rect id="Rectangle 176481" x="77.5947" y="40.1072" width="61.7741" height="8.82488" fill="#1D1D1D"/>
<rect id="Rectangle 176511" x="106.075" y="110.706" width="8.82488" height="20.0565" transform="rotate(90 106.075 110.706)" fill="#403E3E"/>
<rect id="Rectangle 176512" x="114.9" y="110.706" width="8.82488" height="17.6498" transform="rotate(-180 114.9 110.706)" fill="#403E3E"/>
<rect id="Rectangle 176517" x="132.55" y="110.706" width="8.82488" height="17.6498" transform="rotate(-180 132.55 110.706)" fill="#403E3E"/>
<rect id="Rectangle 176514" x="114.9" y="101.881" width="8.82488" height="8.82488" transform="rotate(-90 114.9 101.881)" fill="#403E3E"/>
<rect id="Rectangle 176513" x="86.4194" y="110.706" width="8.82488" height="17.6498" transform="rotate(-180 86.4194 110.706)" fill="#403E3E"/>
</g>
</svg>
